<?xml version="1.0" standalone="no"?>
<!DOCTYPE svg PUBLIC "-//W3C//DTD SVG 20010904//EN"
 "http://www.w3.org/TR/2001/REC-SVG-20010904/DTD/svg10.dtd">
<svg version="1.0" xmlns="http://www.w3.org/2000/svg"
 width="1024.000000pt" height="1024.000000pt" viewBox="0 0 1024.000000 1024.000000"
 preserveAspectRatio="xMidYMid meet">
<metadata>
Created by potrace 1.14, written by Peter Selinger 2001-2017
</metadata>
<g transform="translate(0.000000,1024.000000) scale(0.100000,-0.100000)"
fill="#000000" stroke="none">
<path d="M2952 10220 c-102 -27 -217 -91 -294 -163 -81 -77 -116 -123 -158
-210 -55 -115 -69 -187 -70 -362 l0 -140 -63 -38 c-345 -210 -713 -518 -1048
-877 -210 -226 -488 -601 -624 -842 -16 -29 -45 -80 -64 -113 -104 -184 -252
-508 -320 -700 -18 -49 -38 -106 -46 -125 -83 -216 -200 -733 -230 -1025 -4
-33 -8 -76 -11 -95 -26 -216 -25 -806 2 -1016 2 -18 6 -52 8 -76 3 -24 7 -60
10 -81 4 -20 8 -54 11 -75 3 -20 8 -53 11 -72 11 -65 64 -325 78 -380 8 -30
21 -83 30 -118 37 -148 155 -493 210 -617 8 -16 24 -55 37 -85 12 -30 64 -138
115 -240 130 -258 279 -503 441 -722 l65 -87 0 -322 c1 -323 5 -372 33 -464
38 -121 88 -200 185 -295 126 -124 298 -189 499 -191 62 -1 111 -3 109 -4 -2
-2 -18 -5 -36 -8 -94 -15 -207 -111 -243 -207 -50 -133 -22 -273 76 -372 74
-75 121 -93 245 -93 91 0 111 3 152 24 219 112 260 402 79 567 -36 34 -106 72
-144 80 -53 10 -8 12 225 12 l253 0 160 -86 c314 -171 604 -292 955 -399 110
-33 392 -103 475 -118 22 -3 61 -20 86 -36 25 -16 53 -29 62 -29 9 0 18 -4 22
-10 3 -5 50 -7 113 -4 59 3 157 3 217 2 232 -6 864 -3 940 5 86 9 83 8 255 32
159 22 162 23 335 60 358 79 735 203 1037 343 l87 41 173 -83 c517 -249 490
-238 504 -219 7 10 14 21 14 24 0 4 47 103 104 220 56 118 121 252 143 299 57
120 208 431 250 517 27 55 57 92 132 166 147 145 264 271 376 407 20 25 46 56
57 69 72 85 290 395 353 502 6 10 24 41 41 71 17 29 48 82 69 118 86 148 209
412 305 655 57 143 163 480 184 585 3 14 14 68 26 120 12 52 24 105 26 118 2
12 9 50 15 85 6 34 13 72 14 85 2 12 8 53 14 90 12 75 20 142 26 217 3 28 8
75 12 105 9 75 9 653 0 770 -11 131 -14 158 -43 360 -25 181 -27 188 -60 335
-14 61 -27 118 -29 128 -2 10 -7 27 -10 37 -3 10 -7 27 -9 37 -23 115 -127
427 -211 633 -105 258 -271 580 -411 797 -30 47 -54 89 -52 94 2 5 150 157
331 338 180 181 327 332 327 336 0 4 -77 83 -170 177 l-170 170 -253 -168
c-138 -92 -259 -168 -268 -168 -14 -1 -1038 673 -1039 684 0 3 115 158 255
345 140 186 255 344 255 350 0 5 -38 47 -83 93 l-83 82 -521 -261 -520 -262
-214 129 c-118 70 -235 138 -260 151 -84 40 -200 63 -307 60 -67 -2 -120 3
-172 15 -149 36 -336 77 -397 88 -109 19 -217 35 -303 46 -30 3 -62 8 -71 9
-138 26 -905 26 -1059 1 -14 -3 -68 -10 -120 -16 -176 -22 -386 -61 -580 -109
-46 -12 -84 -20 -86 -19 -1 2 -22 31 -47 64 -84 114 -227 211 -372 251 -98 28
-256 29 -353 3z m299 -353 c32 -11 71 -33 89 -47 l32 -26 -148 -59 c-82 -32
-178 -71 -214 -88 -81 -36 -212 -98 -224 -105 -5 -3 -7 18 -3 50 14 141 127
263 271 292 74 16 123 12 197 -17z"/>
</g>
</svg>
